<svg xmlns="http://www.w3.org/2000/svg" fill="currentColor" stroke="none" viewBox="0 0 72 72"
    height="10em" width="10em" class="_logo_9rylc_23" style="pointer-events: none;">
    <title>Logo</title>
    <path fill-rule="evenodd" clip-rule="evenodd"
        d="M31.1902 0L40.8098 0C50.2682 0 54.7318 1.18817 58.9036 3.4193C63.0755 5.65043 66.3496 8.92452 68.5807 13.0964C70.8118 17.2682 72 21.7318 72 31.1902V40.8098C72 50.2682 70.8118 54.7318 68.5807 58.9036C66.3496 63.0755 63.0755 66.3496 58.9036 68.5807C54.7318 70.8118 50.2682 72 40.8098 72H31.1902C21.7318 72 17.2682 70.8118 13.0964 68.5807C8.92452 66.3496 5.65043 63.0755 3.4193 58.9036C1.18817 54.7318 0 50.2682 0 40.8098L0 31.1902C0 21.7318 1.18817 17.2682 3.4193 13.0964C5.65043 8.92452 8.92452 5.65043 13.0964 3.4193C17.2682 1.18817 21.7318 0 31.1902 0Z"
        fill="#44a3dd"></path>
    <path fill-rule="evenodd" clip-rule="evenodd"
        d="M12.7822 25H28.4336C29.6091 25 30.6905 25.6473 31.2517 26.6869L45.1875 52.5H26.5398C25.3643 52.5 24.283 51.8527 23.7217 50.8131L11.2165 27.6498C10.7467 26.7795 11.0667 25.6905 11.9314 25.2176C12.1925 25.0748 12.485 25 12.7822 25Z"
        fill="#BEE5F7"></path>
    <path fill-rule="evenodd" clip-rule="evenodd"
        d="M59.2178 25C59.515 25 59.8074 25.0748 60.0686 25.2176C60.907 25.6762 61.2334 26.714 60.824 27.5701L60.7834 27.6498L48.2782 50.8131C47.7351 51.8192 46.7049 52.4578 45.5736 52.498L45.4601 52.5H27.1031H26.5398L26.4261 52.498C25.8349 52.4769 25.2712 52.2924 24.7903 51.9774C25.0312 52.1166 25.304 52.2064 25.5948 52.2328C25.6257 52.2356 25.8751 52.2589 26.1525 52.1839C26.2699 52.1522 26.703 52.0504 27.162 51.6183C27.3679 51.4245 27.7377 50.7859 27.7377 50.7859L40.7482 26.6869C41.2914 25.6808 42.3216 25.0422 43.4529 25.002L43.5663 25H59.2178Z"
        fill="white"></path>
</svg>
