<svg xmlns="http://www.w3.org/2000/svg" width="43" height="43" viewBox="0 0 43 43" fill="none">
    <path fill-rule="evenodd" clip-rule="evenodd" d="M21.4758 0C25.5302 0 29.3214 1.12563 32.5544 3.0809C27.4297 9.51631 20.9917 17.487 16.2979 20.2682C16.4479 19.7226 16.6366 19.1108 16.8518 18.463C18.0457 14.8662 20.0625 10.5971 20.9354 8.84979C21.394 8.07904 21.4675 7.0571 21.1814 6.216C20.6128 4.54839 18.7628 3.62025 17.0796 4.19297C15.8971 4.59633 15.3984 5.43691 14.919 6.48073C14.1461 8.16241 12.2628 12.3908 11.0871 16.2753C9.15268 22.6664 8.97185 28.3895 15.3213 26.9871C18.1046 26.3717 21.1923 24.0928 24.3045 21.0327C22.419 23.6034 20.4466 26.1767 18.4376 28.6521C15.3499 32.4548 12.183 36.0172 9.12141 38.9616C3.62612 35.0797 0.0371094 28.6787 0.0371094 21.4387C0.0371094 9.59864 9.63577 0 21.4758 0ZM38.7449 8.73411C41.3657 12.2898 42.915 16.6829 42.915 21.4387C42.915 33.2792 33.3169 42.8779 21.4758 42.8779C19.2167 42.8779 17.0394 42.5271 14.994 41.8794C17.116 39.612 19.2287 37.1225 21.284 34.5304C27.0367 27.2758 32.3898 19.1681 36.2253 12.9125C36.9637 11.7076 37.8429 10.2636 38.7449 8.73411Z" fill="#EF3841"/>
    </svg>