<svg width="24" height="24" viewBox="0 0 24 24" fill="none" xmlns="http://www.w3.org/2000/svg">
<g clip-path="url(#clip0_225_114)">
<mask id="mask0_225_114" style="mask-type:luminance" maskUnits="userSpaceOnUse" x="0" y="0" width="24" height="24">
<path d="M15.2256 0H15.1824H12.8952H8.7744C1.548 0 0 1.5504 0 8.7744V15.2256C0 22.452 1.5504 24 8.7744 24H12.8952H15.1824H15.2256C22.452 24 24 22.4496 24 15.2256V8.7744C24 1.548 22.4496 0 15.2256 0Z" fill="white"/>
</mask>
<g mask="url(#mask0_225_114)">
<rect width="24" height="24" fill="#00B0F2"/>
</g>
<path d="M4.38477 11.5249C4.41841 11.5081 4.45206 11.4921 4.48485 11.477C5.05494 11.213 5.63259 10.9658 6.20941 10.7186C6.24052 10.7186 6.29264 10.6824 6.32207 10.6706C6.36663 10.6513 6.4112 10.6328 6.45577 10.6135L6.71223 10.5033C6.88376 10.4302 7.05443 10.357 7.22597 10.2838C7.56819 10.1375 7.9104 9.99124 8.25262 9.84409C8.93706 9.55148 9.62236 9.25803 10.3068 8.96542C10.9912 8.67281 11.6765 8.37935 12.361 8.08674C13.0454 7.79413 13.7307 7.50068 14.4151 7.20807C15.0996 6.91546 15.7849 6.622 16.4693 6.32939C16.6215 6.26381 16.7863 6.16627 16.9494 6.13768C17.0865 6.1133 17.2202 6.06621 17.358 6.04015C17.6195 5.99054 17.908 5.97036 18.1585 6.07882C18.2451 6.11666 18.325 6.16963 18.3914 6.23606C18.7093 6.55053 18.6647 7.06681 18.5974 7.50909C18.1291 10.5916 17.6608 13.6749 17.1916 16.7575C17.1277 17.1804 17.0402 17.6445 16.7064 17.9119C16.4239 18.1381 16.022 18.1633 15.673 18.0675C15.3241 17.9708 15.0163 17.7681 14.7145 17.5689C13.4625 16.7398 12.2096 15.9107 10.9576 15.0817C10.66 14.8849 10.3287 14.6276 10.332 14.2703C10.3337 14.055 10.4624 13.8633 10.5935 13.6926C11.6816 12.2733 13.2514 11.2979 14.4193 9.94415C14.5841 9.75328 14.7136 9.40854 14.4874 9.29839C14.3529 9.2328 14.1982 9.32193 14.0754 9.40686C12.5316 10.4789 10.9887 11.5518 9.44495 12.6239C8.94128 12.9737 8.41324 13.3336 7.80615 13.4193C7.26297 13.4967 6.71643 13.3453 6.19091 13.1906C5.75031 13.0611 5.31054 12.9283 4.87246 12.7912C4.63955 12.7189 4.39907 12.6407 4.21913 12.4768C4.03919 12.3128 3.93578 12.037 4.04425 11.8184C4.11236 11.6813 4.24437 11.5947 4.38311 11.5241L4.38477 11.5249Z" fill="#FEFFFC"/>
</g>
<defs>
<clipPath id="clip0_225_114">
<rect width="24" height="24" fill="white"/>
</clipPath>
</defs>
</svg>
